HIERARCHY
ROOT Hips
{
  OFFSET -33.9132 29.2015 117.021
  CHANNELS 6 Xposition Yposition Zposition Zrotation Xrotation Yrotation
  JOINT LeftUpLeg
  {
    OFFSET 8.64259 1.95398 -2.38835
    CHANNELS 3 Zrotation Xrotation Yrotation
    JOINT LeftLeg
    {
      OFFSET 43.7702 0 0
      CHANNELS 3 Zrotation Xrotation Yrotation
      JOINT LeftFoot
      {
        OFFSET 40.6238 0 0
        CHANNELS 3 Zrotation Xrotation Yrotation
        JOINT LeftToeBase
        {
          OFFSET 12.7242 0 0
          CHANNELS 3 Zrotation Xrotation Yrotation
          End Site
          {
            OFFSET 0 0 0
          }
        }
      }
    }
  }
  JOINT RightUpLeg
  {
    OFFSET -8.2249 1.95398 -2.59336
    CHANNELS 3 Zrotation Xrotation Yrotation
    JOINT RightLeg
    {
      OFFSET 43.5653 0 0
      CHANNELS 3 Zrotation Xrotation Yrotation
      JOINT RightFoot
      {
        OFFSET 40.6238 0 0
        CHANNELS 3 Zrotation Xrotation Yrotation
        JOINT RightToeBase
        {
          OFFSET 12.7242 0 0
          CHANNELS 3 Zrotation Xrotation Yrotation
          End Site
          {
            OFFSET 0 0 0
          }
        }
      }
    }
  }
  JOINT Spine
  {
    OFFSET 0.165834 0.87714 6.61349
    CHANNELS 3 Zrotation Xrotation Yrotation
    JOINT Spine1
    {
      OFFSET 7.38963 1.71661e-005 0
      CHANNELS 3 Zrotation Xrotation Yrotation
      JOINT Spine2
      {
        OFFSET 11.9445 1.14441e-005 0
        CHANNELS 3 Zrotation Xrotation Yrotation
        JOINT Spine3
        {
          OFFSET 14.7254 4.19617e-005 0
          CHANNELS 3 Zrotation Xrotation Yrotation
          JOINT Spine4
          {
            OFFSET 10.9679 0 0
            CHANNELS 3 Zrotation Xrotation Yrotation
            JOINT RightShoulder
            {
              OFFSET 2.46616 -1.6653 3.69651
              CHANNELS 3 Zrotation Xrotation Yrotation
              JOINT RightArm
              {
                OFFSET 13.0012 0 0
                CHANNELS 3 Zrotation Xrotation Yrotation
                JOINT RightForeArm
                {
                  OFFSET 28.7848 1.62311e-005 0
                  CHANNELS 3 Zrotation Xrotation Yrotation
                  JOINT RightHand
                  {
                    OFFSET 26.5688 1.62095e-005 0
                    CHANNELS 3 Zrotation Xrotation Yrotation
                    End Site
                    {
                      OFFSET 0 0 0
                    }
                  }
                }
              }
            }
            JOINT LeftShoulder
            {
              OFFSET 2.38034 -1.29275 -3.7523
              CHANNELS 3 Zrotation Xrotation Yrotation
              JOINT LeftArm
              {
                OFFSET 16.3182 6.07031e-005 0
                CHANNELS 3 Zrotation Xrotation Yrotation
                JOINT LeftForeArm
                {
                  OFFSET 27.0901 0 0
                  CHANNELS 3 Zrotation Xrotation Yrotation
                  JOINT LeftHand
                  {
                    OFFSET 24.5451 1.51738e-005 0
                    CHANNELS 3 Zrotation Xrotation Yrotation
                    End Site
                    {
                      OFFSET 0 0 0
                    }
                  }
                }
              }
            }
            JOINT Neck
            {
              OFFSET 5.0226 -0.0266342 0
              CHANNELS 3 Zrotation Xrotation Yrotation
              JOINT Head
              {
                OFFSET 6.69364 2.86102e-005 0
                CHANNELS 3 Zrotation Xrotation Yrotation
                End Site
                {
                  OFFSET 0 0 0
                }
              }
            }
          }
        }
      }
    }
  }
}
MOTION
Frames:	6
Frame Time:	0.0416667
33.9748 101.363 17.3419 -161.07 -80.9508 -163.413 -175.4 -6.34356 87.7382 -8.97805 -2.15853 1.04351 67.3016 3.63611 -2.62061 18.7712 -10.4223 10.0922 170.934 -4.02218 85.4455 -12.3454 -5.01679 0.0366676 66.4867 -3.28352 2.2818 25.324 0.377061 4.3405 0.373061 7.38736 -89.8819 12.0988 0.797455 0.147817 0.428099 0.803188 0.112559 -22.1086 0.716165 0.380661 -2.096 0.716158 0.380653 89.97 -25.3709 -108.726 30.4106 8.00355 -5.90595 -3.66176 -0.441097 -56.194 3.80059 -1.52612 -42.5326 -88.6603 -45.7738 79.8844 -13.1822 -5.51517 -35.4613 -22.0675 -21.7958 -27.253 -21.4343 3.41924 -27.1214 0.995483 -1.63943 -3.35541 -9.34169 -1.20307 1.33442 
33.7231 101.357 17.4429 -164.315 -81.579 -165.924 -174.638 -5.10954 88.9804 -10.4836 -1.07248 0.696688 67.8476 3.58364 -2.87849 16.8801 -10.5503 8.34492 171.65 -4.43932 86.5909 -10.9991 -4.73474 0.0561789 65.2581 -2.83288 1.65158 25.8637 0.0897299 4.56779 0.29553 7.32483 -90.0068 12.2244 0.58422 -0.0789401 0.553577 0.580177 -0.104584 -21.9826 0.58093 0.100297 -1.96995 0.580932 0.100292 90.3384 -24.4238 -108.359 30.8513 7.31754 -6.13913 -3.25679 -0.142554 -56.0554 4.10861 -1.62856 -42.4815 -88.6395 -46.5624 80.0807 -15.8973 -10.2052 -36.4366 -18.5 -19.8419 -23.2516 -26.5924 4.52708 -27.5864 0.768283 -1.51624 -3.08523 -9.17007 -1.16276 2.00182 
33.7194 101.391 17.5627 -164.483 -81.4258 -165.943 -174.49 -5.46815 89.1921 -10.2388 -0.584349 0.636339 67.7645 3.57434 -2.82769 17.3508 -11.0398 9.63399 171.59 -4.70225 86.7139 -11.1327 -4.70512 0.144274 65.508 -3.01 1.2267 25.157 0.268107 4.98222 0.300815 7.34446 -90.0232 12.1849 0.586983 -0.111649 0.514105 0.581499 -0.137388 -22.0221 0.593399 0.069928 -2.00947 0.593402 0.0699271 90.2571 -24.5476 -108.48 30.7338 7.52692 -6.07466 -3.5938 -0.39266 -55.9516 4.22286 -1.67901 -42.7438 -88.6304 -46.5309 80.0884 -15.2463 -9.56339 -36.4485 -18.2845 -18.7502 -23.0923 -24.9329 4.16782 -27.3585 0.871248 -1.52283 -2.99694 -9.41484 -1.16111 1.6107 
33.729 101.388 17.6385 -164.875 -81.4617 -166.322 -174.563 -5.5078 89.1294 -10.2359 -0.448486 0.710869 67.7097 3.58139 -2.61029 17.6934 -10.8867 9.73652 171.598 -4.7382 86.7158 -11.1127 -4.6319 0.13796 65.6316 -3.11967 1.00429 24.8295 0.222965 5.62646 0.2991 7.3464 -90.0408 12.19 0.575195 -0.145475 0.519143 0.56824 -0.170664 -22.017 0.592328 0.0341279 -2.00439 0.592326 0.0341239 90.3207 -24.2828 -108.46 30.8817 7.28518 -5.76092 -3.09495 -0.025741 -56.4052 3.59188 -1.43721 -42.0832 -88.695 -46.8337 80.0504 -14.9982 -9.49632 -36.5195 -18.4598 -19.0736 -23.1036 -24.2706 3.92453 -26.8347 0.787132 -1.48208 -2.56553 -9.26157 -1.1651 1.2729 
33.7149 101.372 17.688 -164.918 -81.559 -166.271 -174.667 -5.33889 89.1105 -10.4553 -0.599696 0.871214 67.9541 3.64746 -2.61393 17.3816 -11.1295 9.81332 171.746 -4.99785 86.8563 -10.4271 -4.44781 0.0817389 65.3258 -3.00559 1.62584 25.4239 0.328482 4.3651 0.327271 7.34288 -90.0498 12.1887 0.626969 -0.169224 0.517871 0.618914 -0.196652 -22.0185 0.648844 0.0270447 -2.00586 0.648839 0.0270362 90.4655 -24.488 -108.057 30.7496 7.48281 -5.94351 -3.40317 -0.251062 -56.2096 4.18232 -1.66357 -42.7015 -88.7784 -46.69 79.8908 -14.6335 -9.01694 -36.7208 -18.8319 -19.5775 -23.1216 -23.4009 3.67794 -26.4834 1.29698 -1.65336 -2.7019 -9.90059 -1.30201 1.15654 
33.7117 101.379 17.7573 -164.972 -81.5989 -166.338 -174.52 -5.28195 89.226 -10.5472 -0.692102 0.72045 67.9855 3.61562 -2.89225 17.3867 -10.971 9.55756 171.75 -4.85986 86.8846 -10.8224 -4.34603 0.0695737 65.6654 -3.15968 1.32382 24.8202 0.437466 4.87008 0.318813 7.33386 -90.0434 12.2067 0.613196 -0.154977 0.535892 0.605778 -0.18182 -22.0004 0.631416 0.0364803 -1.98778 0.631424 0.0364838 90.3594 -24.5716 -108.249 30.6915 7.55687 -5.77012 -3.03479 0.0171719 -56.4824 4.45156 -1.7403 -42.3888 -88.724 -46.8044 79.9991 -14.4763 -8.95969 -36.712 -18.9658 -19.7815 -23.2711 -23.526 3.72724 -26.6214 1.10173 -1.66032 -2.86287 -9.7937 -1.30573 1.43239 
